<svg xmlns="http://www.w3.org/2000/svg" viewBox="0 0 64 64"><title>email-newsletter</title><g id="email-newsletter"><polyline points="8.82 19 2 24 2 62 62 62 62 24 55.18 19" fill="#fa3"/><polygon points="62 62 2 62 2 24 25 43 39 43 62 24 62 62" fill="#ffcb47"/><polygon points="62 62 2 62 5 59 59 59 62 62" fill="#fa3"/><polygon points="40 43 24 43 9 30 9 2 55 2 55 30 40 43" fill="#fff"/><rect x="12" y="8" width="40" height="14" fill="#ff504d"/><polygon points="28 43 25 43 12 32 12 29 28 29 28 43" fill="#5ce7ff"/><polyline points="8.82 19 2 24 2 62 62 62 62 24 55.18 19" fill="none" stroke="#3e3948" stroke-miterlimit="10" stroke-width="2"/><polyline points="2 62 24 43 40 43 62 62" fill="none" stroke="#3e3948" stroke-miterlimit="10" stroke-width="2"/><line x1="2" y1="24" x2="25.5" y2="43.25" fill="none" stroke="#3e3948" stroke-miterlimit="10" stroke-width="2"/><line x1="62" y1="24" x2="38.5" y2="43.25" fill="none" stroke="#3e3948" stroke-miterlimit="10" stroke-width="2"/><polyline points="9 30 9 2 55 2 55 30" fill="none" stroke="#3e3948" stroke-miterlimit="10" stroke-width="2"/><polyline points="13 21 13 10 14 10 18 20 19 20 19 9" fill="none" stroke="#3e3948" stroke-miterlimit="10" stroke-width="2"/><polyline points="29 10 23 10 23 20 29 20" fill="none" stroke="#3e3948" stroke-miterlimit="10" stroke-width="2"/><line x1="29" y1="15" x2="23" y2="15" fill="none" stroke="#3e3948" stroke-miterlimit="10" stroke-width="2"/><polyline points="32 9 32 20 33 20 36 13 39 20 40 20 40 9" fill="none" stroke="#3e3948" stroke-miterlimit="10" stroke-width="2"/><path d="M51,13v-.5A2.5,2.5,0,0,0,48.5,10h-2A2.5,2.5,0,0,0,44,12.5h0A2.5,2.5,0,0,0,46.5,15h2A2.5,2.5,0,0,1,51,17.5h0A2.5,2.5,0,0,1,48.5,20h-2A2.5,2.5,0,0,1,44,17.5V17" fill="none" stroke="#3e3948" stroke-miterlimit="10" stroke-width="2"/><line x1="12" y1="24" x2="52" y2="24" fill="none" stroke="#3e3948" stroke-miterlimit="10" stroke-width="2"/><line x1="12" y1="6" x2="41" y2="6" fill="none" stroke="#3e3948" stroke-miterlimit="10" stroke-width="2"/><polyline points="12 29 13 29 28 29 28 42" fill="none" stroke="#3e3948" stroke-miterlimit="10" stroke-width="2"/><line x1="31" y1="29" x2="52" y2="29" fill="none" stroke="#3e3948" stroke-miterlimit="10" stroke-width="2"/><line x1="31" y1="33" x2="46" y2="33" fill="none" stroke="#3e3948" stroke-miterlimit="10" stroke-width="2"/><line x1="31" y1="37" x2="41" y2="37" fill="none" stroke="#3e3948" stroke-miterlimit="10" stroke-width="2"/><line x1="43" y1="6" x2="46" y2="6" fill="none" stroke="#3e3948" stroke-miterlimit="10" stroke-width="2"/><line x1="52" y1="6" x2="48" y2="6" fill="none" stroke="#3e3948" stroke-miterlimit="10" stroke-width="2"/></g></svg>